<?xml version="1.0" standalone="no"?>
<!DOCTYPE svg PUBLIC "-//W3C//DTD SVG 20010904//EN"
 "http://www.w3.org/TR/2001/REC-SVG-20010904/DTD/svg10.dtd">
<svg version="1.0" xmlns="http://www.w3.org/2000/svg"
 width="4000.000000pt" height="4000.000000pt" viewBox="0 0 4000.000000 4000.000000"
 preserveAspectRatio="xMidYMid meet">

<g transform="translate(0.000000,4000.000000) scale(0.100000,-0.100000)"
fill="#000000" stroke="none">
<path d="M3163 31830 c-81 -12 -136 -50 -168 -115 -25 -50 -27 -62 -20 -122
29 -287 159 -682 313 -953 99 -174 180 -280 321 -421 352 -351 679 -541 1100
-638 216 -50 661 -96 818 -85 l91 7 169 -148 c172 -151 384 -315 578 -447 125
-85 374 -237 423 -257 47 -20 39 -31 -21 -31 -84 0 -290 -28 -406 -56 -323
-76 -592 -193 -936 -407 -186 -116 -374 -283 -516 -459 -94 -118 -118 -179
-99 -257 17 -70 57 -112 181 -186 326 -197 734 -349 1144 -427 109 -21 149
-23 425 -22 293 0 310 1 440 28 207 42 334 82 465 146 231 112 443 259 595
412 89 90 250 297 283 366 12 23 24 42 28 42 4 0 40 -19 79 -41 98 -57 279
-138 430 -192 128 -46 736 -225 857 -252 202 -44 658 -115 744 -115 26 0 50
-4 54 -9 3 -5 -13 -39 -36 -75 -53 -84 -134 -276 -165 -391 -34 -123 -43 -340
-20 -473 17 -97 69 -245 113 -322 81 -142 249 -321 393 -420 386 -264 869
-273 1229 -23 93 65 183 147 252 230 33 40 64 73 69 73 4 0 15 -19 25 -42 33
-86 141 -231 241 -328 157 -151 303 -238 521 -309 171 -56 223 -65 371 -58
283 12 510 113 698 309 143 149 231 292 280 455 36 120 44 333 19 485 -22 136
-91 341 -165 491 -33 66 -59 121 -57 122 1 1 33 9 70 18 134 32 337 146 461
258 260 236 412 536 433 860 17 276 -105 559 -335 771 -140 129 -351 239 -553
289 -78 19 -122 23 -259 23 -106 1 -187 -4 -228 -13 -34 -8 -65 -12 -67 -9 -3
3 0 65 6 138 12 146 1 334 -27 445 -103 407 -383 703 -764 807 -122 33 -343
33 -481 0 -217 -52 -399 -161 -595 -356 -136 -137 -188 -204 -246 -321 -66
-132 -86 -215 -114 -472 l-5 -41 -93 43 c-343 161 -648 185 -942 75 -86 -32
-235 -106 -304 -152 -193 -127 -348 -341 -406 -563 -26 -98 -26 -355 -1 -475
44 -204 121 -384 225 -522 29 -39 52 -72 50 -73 -8 -8 -365 66 -453 93 -55 17
-140 42 -190 55 -348 95 -558 168 -750 262 -145 72 -331 188 -327 205 2 7 30
88 63 179 122 337 179 646 179 983 0 337 -114 778 -283 1088 -108 199 -167
274 -479 607 -188 201 -301 305 -415 381 -34 23 -65 47 -69 53 -12 21 -89 49
-133 49 -62 0 -125 -33 -160 -83 -40 -59 -161 -304 -205 -416 -88 -222 -125
-430 -133 -731 -8 -318 15 -514 92 -769 46 -156 195 -490 288 -648 20 -35 34
-63 31 -63 -4 0 -72 35 -153 77 -396 208 -784 489 -1153 835 l-57 53 -39 170
c-22 94 -53 222 -67 285 -57 238 -136 435 -239 589 -184 276 -414 466 -791
651 -266 131 -427 183 -705 229 -292 48 -668 71 -817 51z m742 -435 c227 -36
381 -85 595 -188 230 -112 372 -210 511 -354 176 -183 263 -361 337 -694 42
-187 30 -226 -78 -250 -56 -13 -304 15 -462 51 -358 83 -623 236 -924 535
-169 168 -287 359 -382 615 -62 168 -69 207 -46 255 19 40 35 51 91 63 39 8
179 -5 358 -33z m3514 -357 c17 -13 97 -94 179 -182 324 -349 350 -383 453
-591 141 -287 218 -634 205 -920 -13 -277 -58 -519 -138 -733 -20 -54 -54 -82
-99 -82 -46 0 -258 232 -429 470 -89 124 -236 406 -309 594 -127 325 -157 753
-79 1131 21 105 70 254 94 293 29 44 77 52 123 20z m5515 -914 c119 -30 204
-79 291 -168 44 -45 95 -107 114 -139 76 -129 113 -302 105 -492 -5 -106 -20
-195 -69 -405 -40 -174 -41 -220 -1 -281 66 -99 193 -115 297 -35 60 45 149
89 239 118 63 19 96 23 205 23 151 0 221 -18 369 -91 162 -80 262 -177 335
-322 65 -130 74 -212 41 -372 -56 -273 -290 -545 -547 -636 -56 -19 -88 -24
-179 -24 -61 0 -150 7 -197 15 -47 8 -92 13 -99 11 -7 -2 -25 -7 -40 -10 -33
-8 -94 -59 -112 -95 -22 -43 -27 -90 -15 -137 9 -35 33 -68 108 -150 52 -58
115 -131 139 -162 88 -115 194 -371 223 -536 17 -97 7 -266 -20 -341 -55 -154
-214 -328 -364 -398 -66 -31 -190 -57 -274 -57 -123 0 -359 87 -480 177 -102
76 -197 183 -242 270 -46 92 -158 361 -170 408 -26 105 -97 165 -195 165 -94
0 -154 -49 -189 -156 -51 -152 -241 -402 -380 -496 -112 -76 -221 -110 -358
-110 -155 0 -278 38 -416 128 -104 69 -238 211 -286 301 -63 123 -72 163 -72
318 1 131 3 146 33 234 72 208 190 385 309 464 38 24 106 64 152 87 98 50 142
87 165 134 35 74 9 180 -56 230 -42 31 -123 51 -275 65 -320 32 -546 148 -667
345 -104 168 -162 447 -125 606 20 90 79 191 156 267 61 60 92 81 195 132 181
89 283 110 438 92 52 -7 128 -24 170 -38 127 -43 413 -195 524 -278 38 -27 89
-45 130 -45 66 1 152 61 175 123 15 40 14 134 -4 217 -31 145 -18 399 26 516
60 160 265 372 451 465 145 73 311 97 442 63z m-5702 -1914 c228 -29 417 -84
580 -167 191 -97 186 -155 -32 -374 -168 -169 -453 -345 -655 -403 -211 -61
-288 -71 -575 -70 -258 0 -269 1 -415 32 -253 53 -520 144 -725 247 -86 43
-96 56 -80 95 22 53 185 185 357 288 330 199 635 316 928 356 156 21 437 20
617 -4z"/>
<path d="M12369 28341 c-30 -10 -101 -42 -158 -72 -87 -45 -115 -66 -178 -134
-132 -142 -178 -270 -170 -470 5 -139 20 -189 93 -316 98 -172 273 -300 457
-334 103 -19 144 -19 251 5 221 49 372 171 476 384 109 223 118 422 28 603
-37 73 -80 118 -191 201 -105 79 -210 130 -294 142 -108 15 -250 11 -314 -9z"/>
<path d="M37445 31834 c-16 -2 -79 -9 -140 -15 -295 -28 -574 -85 -762 -155
-162 -60 -410 -186 -558 -285 -113 -75 -167 -120 -275 -229 -281 -280 -362
-453 -505 -1071 -20 -85 -40 -171 -46 -191 -7 -29 -35 -60 -126 -144 -350
-319 -706 -574 -1083 -774 -84 -44 -154 -79 -157 -77 -2 3 21 50 52 105 68
125 186 378 226 486 108 295 148 588 129 939 -20 379 -77 593 -255 947 -35 70
-76 142 -91 160 -53 62 -146 86 -219 56 -52 -22 -228 -150 -309 -225 -105 -97
-409 -418 -515 -544 -323 -384 -519 -1018 -481 -1560 22 -314 73 -551 182
-844 33 -90 59 -165 57 -167 -16 -15 -260 -157 -321 -188 -192 -94 -291 -129
-723 -254 -276 -80 -421 -115 -657 -158 -25 -5 -24 -1 32 76 138 194 213 401
240 663 21 206 -18 391 -122 575 -102 180 -270 321 -518 431 -203 91 -384 122
-581 100 -163 -19 -292 -59 -468 -145 -41 -20 -75 -35 -76 -34 -1 2 -7 57 -14
124 -20 222 -79 381 -200 542 -79 104 -222 246 -326 325 -101 76 -274 160
-401 194 -89 24 -116 27 -264 27 -151 0 -173 -3 -254 -28 -191 -58 -334 -144
-461 -277 -140 -147 -231 -312 -281 -510 -22 -88 -27 -134 -31 -294 -3 -111
-1 -213 5 -245 6 -30 9 -57 7 -58 -2 -2 -45 3 -96 12 -241 42 -493 3 -724
-109 -257 -126 -434 -301 -546 -539 -63 -134 -83 -222 -82 -361 2 -323 132
-624 374 -867 153 -153 369 -282 532 -318 31 -7 57 -17 57 -21 0 -4 -18 -40
-39 -81 -85 -158 -161 -383 -186 -548 -56 -367 51 -672 330 -945 92 -90 250
-191 353 -225 207 -68 400 -78 587 -30 390 101 694 331 854 648 17 34 35 62
39 62 4 0 21 -19 37 -41 56 -77 239 -242 324 -293 167 -100 337 -148 531 -148
199 -1 353 36 527 126 223 116 438 330 541 539 123 250 143 561 52 827 -28 80
-116 268 -158 335 -17 27 -28 53 -26 57 3 4 26 8 53 8 119 0 705 98 866 145
50 15 205 60 345 100 250 72 395 119 515 168 113 45 270 120 332 158 l62 38
24 -52 c13 -29 58 -98 100 -154 160 -211 318 -354 557 -503 234 -145 406 -211
689 -267 130 -26 150 -27 446 -27 298 0 315 1 445 28 344 69 604 159 920 316
237 118 329 180 361 247 34 71 23 146 -34 231 -136 203 -371 412 -652 580
-430 256 -798 380 -1217 410 l-103 7 105 59 c162 92 360 220 530 345 194 142
259 195 434 350 l140 123 95 -6 c143 -10 589 34 786 78 332 75 621 211 864
406 304 245 471 438 614 710 144 274 269 669 284 900 5 74 3 91 -15 127 -27
52 -72 89 -124 104 -40 10 -350 20 -413 13z m12 -416 c73 -22 90 -95 49 -214
-100 -293 -222 -506 -391 -683 -96 -100 -292 -267 -387 -328 -231 -150 -517
-245 -837 -278 -159 -17 -220 -11 -258 27 -41 41 -40 85 7 272 82 332 156 474
344 662 119 119 269 222 461 317 243 121 403 169 700 212 243 35 242 35 312
13z m-3813 -369 c56 -26 132 -270 156 -506 15 -136 14 -420 0 -528 -15 -114
-61 -298 -100 -406 -37 -98 -173 -383 -226 -472 -99 -164 -268 -380 -415 -529
-88 -91 -119 -100 -169 -50 -55 55 -139 378 -159 612 -18 205 -19 222 -10 340
15 201 51 374 115 555 45 125 160 351 219 430 48 65 273 312 426 468 98 100
114 108 163 86z m-5319 -929 c163 -41 278 -114 428 -269 158 -164 201 -255
219 -463 12 -129 9 -178 -23 -388 -15 -97 -2 -147 51 -200 75 -75 168 -77 272
-6 100 68 252 154 361 206 309 144 497 143 781 -3 142 -72 228 -156 284 -274
69 -145 74 -282 17 -490 -73 -273 -225 -433 -495 -521 -76 -25 -282 -62 -346
-62 -112 0 -217 -48 -248 -115 -38 -78 -30 -155 20 -215 14 -16 87 -62 162
-102 155 -82 230 -147 309 -270 129 -199 186 -404 163 -583 -27 -201 -114
-346 -294 -491 -282 -226 -640 -236 -895 -24 -127 106 -276 312 -318 443 -12
37 -32 81 -43 97 -40 57 -153 87 -223 61 -60 -23 -95 -69 -126 -164 -45 -140
-164 -399 -214 -469 -118 -164 -276 -275 -487 -343 -200 -65 -415 -31 -572 88
-110 84 -225 237 -257 343 -44 141 -37 302 21 484 71 221 143 344 311 532 63
69 110 131 117 153 24 73 -8 169 -69 211 -60 41 -100 47 -193 29 -103 -19
-278 -22 -338 -5 -144 40 -328 175 -440 324 -139 184 -198 464 -135 633 79
209 284 384 530 455 116 32 310 33 409 0 78 -26 221 -96 231 -113 13 -20 109
-59 145 -59 79 1 172 74 186 145 9 51 1 106 -46 305 -36 153 -42 194 -47 331
-4 123 -2 173 11 240 81 401 420 639 781 549z m6022 -1905 c143 -19 303 -60
471 -122 269 -99 612 -303 775 -461 94 -93 83 -111 -127 -203 -218 -96 -418
-159 -671 -211 -98 -20 -139 -23 -370 -23 -231 0 -273 3 -375 23 -236 47 -369
99 -566 223 -168 105 -266 187 -368 309 -108 129 -117 167 -55 229 53 54 267
144 451 192 216 55 593 75 835 44z"/>
<path d="M28280 28349 c-100 -16 -285 -126 -402 -237 -84 -80 -147 -274 -133
-412 29 -280 200 -538 422 -636 360 -159 749 11 906 396 53 128 54 327 4 464
-66 179 -215 317 -441 408 -59 24 -261 34 -356 17z"/>
<path d="M20427 29499 c-53 -13 -85 -31 -222 -123 -497 -336 -901 -852 -1139
-1454 -106 -270 -194 -694 -210 -1017 -3 -60 -6 -111 -6 -112 0 -1 -47 31
-104 71 -300 210 -611 353 -971 446 -525 137 -908 133 -1585 -16 -278 -61
-376 -108 -435 -208 -41 -69 -45 -113 -35 -351 26 -624 52 -802 162 -1129 155
-463 244 -646 451 -921 264 -353 578 -615 970 -810 425 -212 855 -327 1302
-349 66 -4 143 -9 172 -12 l52 -5 6 -47 c45 -356 91 -545 177 -731 177 -386
574 -684 1040 -781 175 -36 352 -53 498 -47 476 22 863 175 1146 454 247 243
364 519 430 1008 10 72 20 133 24 138 8 9 57 15 210 22 362 18 750 104 1070
238 504 211 845 461 1158 851 210 262 317 462 458 859 150 420 181 605 204
1212 11 284 9 315 -22 382 -58 125 -194 182 -638 267 -456 87 -762 97 -1120
36 -456 -78 -842 -234 -1227 -496 l-123 -83 0 72 c0 152 -42 449 -95 673 -99
415 -284 806 -549 1161 -125 168 -356 410 -506 530 -112 91 -336 242 -385 261
-44 17 -115 22 -158 11z m173 -683 c379 -302 678 -738 834 -1213 88 -266 129
-521 129 -788 0 -252 -20 -404 -79 -589 -31 -97 -48 -131 -123 -246 -33 -49
-89 -144 -126 -210 -37 -66 -71 -120 -75 -120 -4 0 -19 15 -33 33 -51 65 -165
175 -237 230 -128 96 -313 177 -404 177 -77 0 -248 -70 -364 -148 -74 -51
-217 -185 -268 -252 -21 -28 -41 -47 -45 -42 -4 4 -30 50 -59 102 -29 52 -92
158 -140 235 -88 142 -112 197 -149 340 -38 152 -46 241 -46 500 1 231 3 261
28 390 56 285 105 445 199 650 144 316 338 590 576 816 97 92 251 218 267 219
6 0 58 -38 115 -84z m-3234 -1981 c236 -35 559 -137 768 -242 326 -164 728
-497 904 -748 142 -204 302 -468 290 -480 -2 -3 -38 16 -79 41 -109 69 -254
139 -339 165 -62 20 -97 24 -200 24 -111 0 -135 -3 -214 -29 -54 -18 -118 -48
-161 -78 -82 -54 -190 -164 -231 -234 -129 -220 -105 -477 68 -704 27 -36 140
-154 251 -262 111 -108 198 -200 194 -204 -4 -4 -63 -2 -130 4 -481 48 -1007
259 -1351 542 -207 170 -436 451 -548 675 -72 141 -208 526 -247 695 -28 119
-49 312 -61 544 -5 110 -8 201 -7 203 14 13 441 90 577 103 119 12 386 4 516
-15z m6849 5 c106 -15 278 -46 394 -71 l94 -21 -7 -157 c-11 -229 -32 -442
-55 -558 -24 -116 -152 -499 -216 -645 -151 -346 -456 -693 -795 -908 -169
-107 -459 -238 -650 -293 -206 -60 -493 -111 -587 -105 l-48 3 71 70 c38 39
130 129 203 200 263 256 339 401 329 632 -4 92 -10 119 -35 179 -80 186 -241
334 -437 401 -72 25 -95 28 -211 28 -116 0 -139 -3 -214 -28 -97 -33 -168 -67
-299 -145 -51 -30 -95 -52 -98 -49 -12 12 134 266 224 388 31 43 75 104 97
135 105 151 368 384 627 556 321 213 747 363 1128 398 114 10 375 5 485 -10z
m-3653 -1367 c150 -114 283 -332 332 -546 44 -187 144 -295 284 -304 153 -11
506 121 812 303 213 127 283 147 351 101 51 -34 66 -66 49 -107 -15 -36 -146
-173 -303 -316 -151 -138 -309 -347 -379 -501 -63 -139 -77 -196 -98 -412 -48
-477 -94 -664 -206 -832 -85 -129 -250 -255 -415 -319 -329 -127 -789 -111
-1084 38 -233 117 -366 271 -440 507 -49 159 -64 252 -104 640 -22 211 -36
263 -111 411 -95 186 -191 301 -513 614 -65 63 -130 134 -144 158 -23 39 -24
46 -12 68 17 33 88 74 127 74 45 0 115 -30 238 -103 324 -192 667 -327 830
-327 142 0 267 124 303 302 35 167 139 362 256 482 52 52 137 116 156 116 4 0
36 -21 71 -47z"/>
<path d="M3738 26780 c-71 -21 -140 -85 -182 -168 -68 -137 -100 -306 -161
-867 -68 -636 -83 -1884 -35 -3070 10 -226 17 -350 50 -800 27 -361 76 -784
179 -1555 11 -80 27 -199 36 -265 104 -790 155 -1080 294 -1645 168 -681 332
-1207 543 -1738 l61 -152 -85 -128 c-159 -238 -262 -471 -324 -738 -43 -185
-57 -308 -57 -499 -1 -341 63 -663 183 -920 45 -97 196 -326 274 -415 164
-188 468 -392 729 -490 225 -85 567 -167 775 -186 45 -4 72 -11 72 -19 0 -6
-11 -44 -24 -83 -51 -149 -69 -264 -69 -442 0 -177 9 -243 63 -449 104 -397
376 -859 681 -1158 330 -323 667 -508 1079 -594 101 -21 141 -24 325 -23 191
0 221 3 332 27 238 53 444 136 651 262 126 76 119 75 127 18 11 -76 64 -288
100 -398 80 -245 282 -624 432 -811 205 -257 457 -457 757 -603 307 -150 558
-207 861 -198 249 7 462 57 738 173 115 49 321 155 402 208 120 79 289 232
452 410 46 50 84 88 86 85 2 -2 27 -38 55 -79 135 -195 365 -412 567 -532 269
-160 546 -239 850 -241 289 -2 541 64 800 209 157 88 260 167 395 304 171 172
291 343 372 533 37 85 89 259 103 339 3 21 10 38 14 38 4 0 29 -16 54 -35 101
-77 360 -246 433 -283 406 -203 882 -195 1342 23 321 153 561 394 733 737 165
328 222 550 222 858 0 179 -28 360 -79 503 -14 38 -13 43 3 55 32 24 575 288
669 326 198 78 536 159 774 185 233 26 690 -69 1030 -214 141 -60 437 -203
548 -266 64 -35 73 -44 67 -62 -102 -345 -113 -639 -34 -946 55 -210 164 -455
285 -638 90 -136 260 -312 390 -405 295 -210 737 -334 1063 -298 333 37 518
118 889 388 57 41 107 71 111 66 4 -5 14 -40 21 -79 73 -390 359 -800 736
-1053 280 -189 589 -286 914 -285 272 0 484 51 738 176 173 86 295 173 456
327 81 77 213 235 256 305 13 22 25 42 27 44 2 3 58 -53 126 -124 233 -246
396 -374 607 -480 229 -114 445 -194 660 -242 116 -25 141 -27 340 -27 186 0
229 3 319 23 459 99 936 386 1213 730 169 210 363 559 458 826 39 111 96 330
105 408 4 31 11 60 16 63 5 3 34 -11 65 -31 225 -144 440 -233 704 -292 157
-35 406 -43 565 -18 624 96 1169 480 1545 1086 143 230 247 465 309 699 82
310 81 563 -3 842 -20 65 -36 120 -36 123 0 3 17 5 38 5 64 0 331 47 473 84
307 79 516 170 755 328 188 125 321 257 447 448 153 233 219 384 268 623 49
239 62 380 56 577 -16 450 -137 828 -384 1199 l-83 123 74 187 c219 549 378
1070 560 1831 112 463 158 725 246 1370 196 1453 235 1822 280 2670 31 584 38
2220 11 2630 -24 362 -45 578 -87 920 -41 335 -95 493 -201 590 -85 77 -152
83 -294 22 -91 -39 -256 -186 -401 -357 -201 -237 -520 -523 -902 -810 -404
-301 -708 -473 -1231 -692 -786 -330 -1223 -457 -1785 -517 -514 -56 -1160
-61 -1890 -16 -91 5 -255 15 -365 20 -110 6 -360 24 -555 40 -737 61 -804 64
-1270 64 -390 1 -474 -2 -680 -22 -465 -45 -899 -109 -1350 -198 -161 -32
-742 -172 -800 -193 -14 -5 -70 -22 -125 -37 -858 -233 -2220 -966 -3065
-1648 -242 -196 -529 -468 -769 -731 -171 -188 -249 -278 -679 -780 -155 -181
-320 -392 -532 -678 -80 -108 -148 -196 -152 -196 -3 -1 -31 32 -60 72 -30 39
-103 137 -163 217 -213 286 -333 436 -545 681 -74 86 -187 216 -250 290 -525
610 -883 957 -1350 1305 -268 201 -638 441 -975 634 -99 56 -205 117 -235 135
-142 85 -774 391 -975 472 -676 275 -1565 491 -2530 612 -446 57 -595 66
-1070 65 -471 0 -540 -4 -1265 -64 -195 -16 -449 -34 -565 -40 -115 -6 -325
-18 -465 -27 -323 -22 -1247 -24 -1505 -5 -725 55 -1167 170 -2010 522 -590
247 -877 407 -1300 726 -82 62 -182 139 -221 171 -39 32 -114 92 -165 134
-132 108 -354 323 -461 448 -136 158 -203 225 -309 311 -126 101 -257 152
-331 130z m502 -1360 c383 -343 888 -707 1254 -904 273 -147 721 -349 1056
-476 568 -215 909 -313 1335 -384 186 -31 606 -70 825 -77 255 -8 1101 -2
1269 10 96 6 305 18 465 27 160 8 478 30 706 49 659 55 751 59 1195 59 445 1
524 -4 975 -60 663 -82 1373 -233 1925 -411 758 -244 1905 -874 2595 -1427
319 -255 680 -613 990 -982 41 -49 138 -161 215 -249 270 -307 423 -498 727
-905 187 -251 445 -543 520 -590 132 -82 245 -85 375 -10 89 51 329 324 588
669 254 337 355 468 454 582 36 42 143 165 236 274 362 421 467 538 690 761
320 321 588 539 1003 815 569 379 1289 762 1817 966 430 166 1093 336 1690
433 1043 169 1552 179 2930 55 88 -8 257 -19 375 -25 118 -5 289 -15 380 -21
347 -23 520 -27 1005 -24 511 4 651 10 975 45 171 19 437 60 520 80 19 5 76
19 125 30 275 66 564 156 886 279 537 204 1037 435 1339 620 191 116 528 356
730 520 143 115 349 288 387 325 24 22 45 38 47 35 2 -2 12 -110 22 -239 14
-190 17 -389 19 -1045 2 -831 -3 -1153 -23 -1450 -7 -93 -16 -285 -22 -425
-18 -463 -113 -1378 -200 -1934 -5 -34 -14 -101 -20 -151 -30 -260 -105 -779
-136 -945 -38 -204 -82 -414 -119 -570 -98 -403 -121 -492 -187 -720 -215
-751 -380 -1174 -720 -1855 -103 -205 -449 -849 -488 -905 -9 -14 -34 -56 -55
-95 -206 -375 -529 -869 -829 -1270 -456 -610 -862 -1039 -1456 -1536 -169
-141 -242 -197 -660 -509 -144 -107 -487 -319 -725 -448 -389 -211 -1025 -457
-1530 -591 -346 -93 -801 -193 -1020 -225 -361 -53 -554 -66 -925 -61 -307 4
-389 9 -710 46 -804 91 -1656 362 -2553 811 -197 98 -616 330 -808 446 -298
179 -323 195 -419 258 -261 170 -659 410 -885 534 -563 308 -993 480 -1356
541 -465 78 -623 78 -1079 5 -182 -30 -438 -103 -630 -181 -152 -62 -176 -73
-385 -175 -386 -189 -614 -320 -1267 -734 -615 -389 -1060 -633 -1629 -889
-380 -172 -634 -268 -1009 -382 -243 -73 -583 -152 -865 -200 -121 -20 -311
-43 -570 -67 -207 -19 -806 -16 -1000 6 -178 19 -442 59 -550 81 -314 65 -469
100 -665 151 -643 166 -1318 428 -1770 687 -338 193 -570 348 -875 580 -49 38
-130 100 -180 137 -49 38 -126 99 -171 137 -45 37 -110 92 -145 122 -261 218
-580 528 -821 796 -160 177 -421 494 -518 628 -19 26 -65 87 -101 135 -219
289 -572 843 -831 1307 -438 781 -694 1303 -880 1790 -79 205 -184 514 -233
685 -20 69 -52 177 -70 240 -70 240 -205 780 -235 935 -6 33 -15 74 -20 90
-16 50 -91 493 -115 675 -9 63 -27 196 -40 295 -13 99 -35 266 -50 370 -14
105 -39 294 -55 420 -16 127 -34 264 -39 305 -13 91 -38 310 -52 445 -22 217
-28 295 -34 405 -4 63 -8 121 -11 128 -2 8 -9 159 -14 335 -6 177 -15 366 -20
419 -26 258 -34 1821 -11 2223 26 473 23 441 43 429 7 -4 51 -42 98 -84z m600
-9575 c360 -704 731 -1351 1053 -1835 93 -140 232 -340 276 -399 l25 -33 -70
7 c-221 21 -481 79 -684 152 -190 68 -406 201 -539 332 -89 88 -219 277 -267
390 -115 266 -160 682 -105 971 29 156 63 281 105 384 34 85 105 221 111 214
2 -2 45 -84 95 -183z m31458 58 c179 -377 215 -752 116 -1223 -44 -208 -194
-473 -352 -622 -231 -217 -565 -367 -982 -442 -110 -19 -280 -39 -287 -33 -2
3 49 81 114 174 314 447 575 876 962 1589 103 187 224 417 271 512 46 95 87
172 91 172 3 0 33 -57 67 -127z m-29639 -2923 c285 -332 570 -627 862 -889
212 -192 428 -375 554 -472 325 -249 548 -412 698 -509 53 -35 97 -67 97 -71
0 -11 -187 -104 -270 -134 -219 -78 -452 -103 -652 -71 -128 22 -323 85 -435
143 -495 252 -915 813 -1042 1391 -51 233 -28 434 78 676 l22 49 16 -24 c9
-13 41 -53 72 -89z m27782 26 c16 -37 41 -111 56 -164 24 -85 27 -115 28 -242
0 -106 -5 -167 -18 -225 -61 -266 -155 -479 -322 -730 -228 -344 -513 -588
-843 -720 -173 -70 -291 -96 -462 -102 -165 -6 -293 13 -463 68 -109 35 -319
137 -311 151 3 5 45 34 92 65 279 179 917 671 1138 878 6 5 44 39 85 75 202
178 415 386 573 560 161 177 347 388 377 430 13 17 27 29 32 27 5 -1 22 -33
38 -71z m-15888 -1362 c24 -108 26 -320 4 -440 -33 -181 -135 -428 -249 -599
-69 -104 -197 -230 -310 -305 -150 -98 -395 -181 -577 -194 -155 -10 -348 27
-481 94 -91 46 -289 178 -414 276 l-86 68 267 131 c476 233 959 511 1588 912
121 78 225 140 230 139 6 -2 18 -38 28 -82z m3963 44 c38 -22 195 -121 349
-218 375 -237 592 -366 885 -527 219 -121 603 -315 733 -372 28 -11 46 -25 42
-31 -23 -38 -397 -296 -500 -345 -202 -97 -442 -114 -688 -50 -239 63 -403
158 -568 331 -138 145 -272 406 -335 652 -42 164 -44 409 -3 565 5 20 11 37
13 37 2 0 35 -19 72 -42z m-12286 -1320 c384 -145 763 -262 1133 -349 519
-123 765 -168 1136 -209 95 -10 175 -20 177 -22 7 -7 -122 -142 -216 -226
-118 -106 -228 -178 -373 -246 -209 -98 -356 -147 -542 -182 -118 -22 -343
-14 -463 15 -330 82 -678 293 -888 540 -152 177 -337 512 -413 745 -23 69 -41
127 -41 130 0 2 69 -25 153 -61 83 -36 235 -97 337 -135z m21000 183 c0 -29
-81 -244 -132 -351 -115 -242 -239 -430 -378 -574 -196 -203 -444 -355 -724
-445 -303 -97 -579 -80 -926 56 -223 88 -380 173 -490 266 -52 43 -290 280
-286 284 2 2 84 13 182 23 280 31 452 59 769 126 700 149 1313 338 1840 569
124 55 145 61 145 46z m-15445 -367 c-43 -243 -148 -444 -337 -639 -219 -228
-481 -361 -781 -395 -94 -11 -144 -9 -287 10 -159 22 -338 95 -510 208 -100
66 -294 257 -358 352 l-43 65 203 17 c449 37 722 79 1148 179 290 68 703 191
900 268 41 16 76 28 77 27 2 -2 -4 -43 -12 -92z m9639 7 c626 -213 1216 -336
1861 -387 116 -9 212 -18 214 -20 11 -10 -126 -178 -218 -267 -159 -154 -329
-258 -526 -320 -417 -131 -878 -8 -1205 322 -153 154 -241 286 -306 458 -41
109 -78 293 -58 293 3 0 110 -35 238 -79z"/>
<path d="M12673 22676 c-100 -45 -155 -126 -156 -229 -2 -105 56 -192 150
-227 68 -25 126 -25 183 1 120 54 176 180 140 310 -11 40 -76 106 -131 134
-45 24 -145 29 -186 11z"/>
<path d="M28152 22680 c-39 -9 -104 -53 -137 -91 -24 -29 -45 -105 -45 -162 1
-80 73 -175 156 -207 71 -26 127 -25 189 4 57 26 92 63 125 131 42 87 11 211
-69 274 -72 57 -133 71 -219 51z"/>
<path d="M11379 22270 c-53 -28 -117 -102 -125 -146 -10 -54 11 -150 40 -189
27 -35 135 -95 171 -95 29 0 128 33 158 53 39 25 69 99 70 170 2 109 -61 193
-163 216 -66 15 -110 13 -151 -9z"/>
<path d="M29422 22271 c-66 -23 -94 -49 -122 -114 -18 -42 -21 -63 -17 -114
10 -106 48 -153 147 -184 75 -23 114 -19 177 18 80 47 113 107 113 208 0 57
-22 99 -76 148 -68 61 -127 71 -222 38z"/>
<path d="M6000 22169 c-344 -37 -649 -261 -805 -592 -159 -335 -134 -677 79
-1112 157 -319 356 -551 604 -704 148 -91 471 -249 672 -328 214 -85 506 -165
861 -238 320 -66 332 -67 389 -18 42 35 60 74 60 130 0 56 -26 105 -70 131
-17 11 -125 38 -242 61 -388 78 -652 148 -853 226 -255 99 -625 288 -747 381
-172 133 -354 401 -457 675 -70 187 -88 349 -56 504 22 105 103 262 177 341
79 84 192 158 293 191 71 24 96 27 225 27 127 1 154 -2 215 -23 185 -62 318
-189 360 -345 26 -97 18 -246 -20 -352 -27 -75 -28 -84 -16 -125 33 -108 160
-153 251 -89 90 64 150 337 120 549 -50 362 -344 641 -744 706 -98 16 -177 17
-296 4z"/>
<path d="M9330 22173 c-147 -23 -284 -69 -385 -130 -345 -208 -461 -599 -318
-1073 77 -257 236 -427 543 -580 307 -154 574 -211 840 -181 287 33 719 142
1110 279 63 22 282 108 485 190 599 242 908 337 1321 406 441 73 884 101 1210
76 358 -28 996 -129 1274 -201 172 -45 272 -84 560 -217 317 -146 491 -253
868 -535 249 -186 557 -492 760 -753 42 -55 91 -78 152 -72 60 6 107 39 131
92 38 83 20 126 -122 297 -197 237 -485 515 -709 684 -193 145 -409 294 -544
375 -200 120 -640 327 -826 390 -312 105 -1123 241 -1606 270 -260 15 -705
-11 -1045 -60 -573 -84 -866 -172 -1729 -522 -696 -283 -1332 -426 -1616 -363
-148 32 -391 136 -519 221 -71 47 -157 139 -190 204 -62 122 -99 360 -76 485
17 91 72 195 133 250 103 93 258 146 433 149 85 1 107 -2 150 -22 68 -31 98
-63 131 -135 23 -51 27 -73 24 -122 -8 -153 9 -202 84 -236 54 -25 92 -24 146
4 64 32 90 87 97 208 6 114 -10 185 -69 309 -75 155 -226 274 -396 309 -50 10
-246 13 -302 4z"/>
<path d="M31300 22157 c-165 -49 -280 -146 -355 -300 -70 -145 -87 -251 -61
-376 24 -109 74 -156 166 -156 63 0 95 16 134 69 18 24 21 42 21 144 0 103 3
123 24 165 30 61 74 105 131 131 38 18 62 21 150 19 405 -7 626 -257 560 -633
-42 -240 -99 -342 -252 -447 -208 -144 -499 -245 -702 -244 -326 2 -911 159
-1511 406 -888 365 -1345 484 -2080 539 -539 41 -774 25 -1575 -105 -232 -37
-485 -94 -630 -141 -248 -80 -742 -320 -985 -478 -103 -68 -377 -266 -480
-348 -255 -204 -659 -621 -749 -774 -65 -112 7 -248 133 -248 65 0 95 22 196
146 332 407 791 792 1281 1073 50 28 176 91 280 140 426 199 579 243 1140 330
687 107 946 121 1429 77 275 -25 649 -83 820 -127 284 -73 588 -179 1055 -369
452 -183 710 -269 1060 -353 552 -134 781 -128 1170 30 187 76 392 203 481
299 134 143 195 282 239 539 75 441 -113 795 -501 945 -185 71 -439 91 -589
47z"/>
<path d="M34672 22166 c-223 -43 -378 -123 -521 -269 -109 -112 -163 -207
-202 -357 -48 -184 -17 -460 64 -581 71 -106 203 -106 274 0 30 45 30 101 -2
179 -35 85 -44 232 -20 322 24 95 60 153 138 227 144 136 348 189 577 152 293
-47 533 -313 571 -633 19 -166 -21 -342 -135 -581 -114 -241 -284 -449 -461
-567 -143 -95 -553 -291 -771 -368 -145 -51 -434 -125 -705 -180 -140 -28
-270 -59 -289 -69 -95 -48 -106 -192 -21 -264 53 -44 83 -44 320 3 388 77 722
167 928 249 134 53 519 237 624 298 240 139 449 355 596 616 118 210 206 447
233 626 17 111 8 311 -19 414 -28 106 -89 240 -156 344 -137 209 -383 378
-626 427 -111 23 -309 29 -397 12z"/>
<path d="M13205 19303 c-368 -14 -832 -81 -1445 -208 -221 -46 -298 -58 -620
-99 -416 -53 -562 -73 -710 -96 -364 -57 -818 -116 -988 -130 -169 -13 -209
-33 -248 -125 -21 -51 -14 -115 31 -295 73 -288 156 -500 324 -825 266 -513
385 -694 752 -1151 456 -566 1107 -1103 1697 -1398 454 -227 907 -363 1352
-406 465 -44 1290 -3 1935 96 524 80 1098 198 1420 291 105 30 251 72 325 93
168 48 298 92 465 158 72 28 152 56 178 63 60 14 141 84 158 136 19 59 5 131
-71 354 -160 474 -255 687 -522 1177 -241 441 -501 798 -793 1088 -389 385
-718 626 -1160 847 -354 177 -889 345 -1261 397 -184 25 -589 42 -819 33z
m539 -368 c260 -20 342 -33 591 -96 579 -146 1095 -406 1540 -775 165 -138
458 -429 562 -559 336 -424 688 -1050 885 -1579 47 -126 118 -334 118 -344 0
-38 -761 -275 -1192 -371 -917 -204 -1708 -300 -2474 -301 -512 0 -909 80
-1378 277 -468 197 -911 498 -1382 940 -249 234 -593 647 -821 988 -126 188
-352 608 -463 858 -75 171 -161 430 -147 444 3 2 88 15 188 28 101 13 310 42
464 65 399 58 670 95 985 135 300 38 404 56 820 140 448 91 779 137 1145 158
143 9 382 5 559 -8z"/>
<path d="M27280 19299 c-309 -21 -481 -48 -755 -119 -553 -144 -1034 -372
-1470 -695 -175 -130 -316 -254 -526 -464 -334 -335 -540 -619 -826 -1144
-247 -452 -379 -763 -533 -1250 -44 -141 -47 -170 -24 -225 30 -72 80 -110
188 -142 34 -10 125 -43 204 -74 178 -69 252 -93 627 -200 354 -101 589 -154
1060 -241 745 -137 1267 -188 1940 -189 258 -1 365 3 490 17 461 53 857 173
1308 398 421 209 877 541 1296 944 232 223 616 694 838 1027 127 191 433 771
514 973 86 218 167 513 175 640 5 71 3 85 -18 120 -38 64 -84 83 -234 95 -171
14 -374 40 -787 101 -402 58 -615 87 -942 129 -292 37 -359 48 -640 105 -517
104 -794 148 -1125 180 -198 18 -587 25 -760 14z m570 -359 c322 -20 647 -67
1132 -164 417 -84 455 -90 812 -136 422 -55 592 -78 736 -100 182 -28 521 -76
704 -99 87 -12 160 -22 162 -23 5 -6 -64 -228 -101 -323 -73 -190 -270 -577
-437 -859 -139 -234 -525 -729 -752 -963 -193 -199 -481 -450 -706 -614 -555
-407 -1130 -646 -1740 -725 -346 -44 -1146 -18 -1700 56 -626 83 -1232 207
-1745 355 -165 48 -314 91 -331 96 -17 5 -91 32 -165 60 -74 28 -147 55 -162
61 -22 8 -26 14 -21 32 65 214 228 624 319 807 76 149 281 522 351 635 297
481 699 910 1149 1224 429 300 927 510 1480 624 275 57 654 78 1015 56z"/>
<path d="M20400 18519 c-58 -36 -90 -91 -138 -239 -84 -259 -114 -447 -127
-785 -6 -155 11 -490 31 -630 13 -91 64 -302 100 -414 8 -25 14 -53 14 -63 0
-26 57 -195 76 -223 25 -38 97 -68 150 -62 77 8 113 47 150 158 18 52 44 141
58 199 14 58 37 146 51 195 83 300 100 894 35 1275 -19 114 -56 257 -103 396
-32 97 -80 170 -128 194 -52 27 -124 26 -169 -1z"/>
<path d="M18141 18199 c-162 -57 -218 -198 -144 -359 50 -109 96 -147 520
-429 312 -208 429 -293 575 -415 101 -84 192 -163 202 -175 24 -26 52 -27 65
-2 11 20 -6 142 -34 239 -21 71 -134 318 -187 407 -50 84 -224 326 -282 392
-67 77 -247 225 -332 273 -154 88 -271 109 -383 69z"/>
<path d="M22625 18208 c-132 -43 -236 -107 -387 -236 -109 -93 -230 -241 -358
-437 -53 -82 -156 -287 -204 -408 -30 -75 -69 -247 -64 -285 7 -62 25 -52 249
135 180 151 273 219 594 432 436 290 484 331 528 450 15 40 27 92 27 117 0 57
-38 132 -87 173 -71 59 -214 87 -298 59z"/>
<path d="M6913 18119 c-56 -28 -109 -88 -145 -166 -26 -55 -30 -73 -26 -131 3
-59 9 -75 43 -127 54 -81 112 -116 203 -123 95 -6 155 15 220 77 62 59 87 131
79 221 -9 105 -57 184 -146 241 -39 25 -55 29 -115 29 -52 0 -82 -6 -113 -21z"/>
<path d="M33834 18114 c-89 -60 -130 -122 -146 -220 -27 -175 98 -323 272
-324 110 0 197 55 252 160 48 94 16 234 -75 329 -58 60 -106 81 -193 81 -60 0
-77 -4 -110 -26z"/>
<path d="M7505 16706 c-45 -14 -112 -54 -137 -82 -9 -11 -28 -44 -42 -74 -71
-151 12 -374 168 -450 50 -25 74 -31 131 -31 168 -2 297 106 325 272 14 78 -3
163 -46 236 -30 53 -111 119 -162 133 -50 14 -188 12 -237 -4z"/>
<path d="M33228 16711 c-87 -28 -190 -154 -204 -249 -24 -159 42 -294 178
-362 124 -61 284 -31 372 71 62 72 89 140 94 245 4 79 1 96 -18 135 -38 75
-57 94 -122 129 -58 31 -71 34 -168 37 -58 1 -117 -1 -132 -6z"/>
<path d="M20465 15313 c-246 -40 -363 -211 -296 -431 19 -63 28 -76 84 -126
91 -82 125 -96 233 -96 108 0 160 21 240 98 67 64 96 137 95 241 -2 166 -104
276 -288 308 -27 5 -57 7 -68 6z"/>
<path d="M8611 15283 c-75 -22 -159 -101 -196 -185 -31 -70 -38 -169 -17 -243
26 -88 133 -191 225 -216 64 -17 158 -12 223 12 152 57 240 246 190 410 -54
179 -240 276 -425 222z"/>
<path d="M32165 15286 c-97 -31 -161 -84 -206 -172 -31 -62 -34 -76 -34 -153
0 -103 20 -156 89 -229 63 -67 142 -102 233 -104 104 -2 163 22 237 96 86 85
101 119 101 236 0 86 -3 100 -29 147 -45 81 -130 157 -198 177 -66 19 -137 20
-193 2z"/>
<path d="M10537 14754 c-223 -49 -413 -186 -573 -412 -208 -293 -282 -575
-233 -886 23 -145 109 -336 214 -476 245 -329 781 -678 1405 -915 152 -57 331
-117 455 -152 98 -27 464 -103 566 -117 439 -63 1114 -31 1678 79 563 110
1279 367 1913 687 239 120 268 147 268 245 0 90 -63 153 -153 153 -42 0 -79
-15 -269 -111 -663 -333 -1372 -580 -1949 -678 -326 -56 -564 -74 -949 -75
-399 -1 -464 6 -839 89 -790 175 -1624 628 -1891 1026 -196 293 -185 594 32
919 98 146 218 250 336 289 73 25 234 28 322 7 196 -47 345 -160 424 -320 100
-204 71 -396 -87 -574 -61 -69 -77 -101 -77 -159 0 -91 63 -153 155 -153 60 0
96 20 157 85 162 175 247 394 234 606 -17 277 -152 515 -386 681 -104 73 -180
107 -340 149 -103 28 -319 34 -413 13z"/>
<path d="M30086 14755 c-318 -60 -558 -232 -695 -495 -91 -174 -119 -387 -76
-563 35 -139 123 -295 228 -405 55 -57 85 -72 145 -72 82 0 150 60 159 142 6
53 -12 95 -67 153 -172 183 -204 395 -93 608 115 218 379 345 658 314 149 -16
296 -125 420 -312 217 -326 222 -631 16 -933 -78 -115 -307 -317 -496 -437
-489 -311 -1105 -539 -1725 -638 -119 -19 -175 -21 -475 -21 -531 0 -909 44
-1368 160 -475 119 -1098 360 -1596 615 -190 98 -232 108 -301 70 -94 -50
-106 -192 -22 -263 72 -61 680 -342 1047 -485 447 -174 967 -312 1406 -372
333 -47 857 -69 1129 -49 381 28 890 152 1325 322 165 65 492 228 655 326 262
158 487 339 621 500 390 468 367 1041 -63 1537 -121 140 -281 246 -433 288
-86 23 -299 28 -399 10z"/>
</g>
</svg>
